<svg width="1184" height="16" viewBox="0 0 1184 16" fill="none" xmlns="http://www.w3.org/2000/svg">
<g style="mix-blend-mode:multiply">
<path fill-rule="evenodd" clip-rule="evenodd" d="M226.131 4.39867V11.5652C226.131 11.6203 226.132 11.6752 226.135 11.7297C226.132 11.6752 226.131 11.6203 226.131 11.5652V4.3987C226.131 4.39869 226.131 4.39868 226.131 4.39867ZM226.938 13.9137C224.183 15.2097 220.521 16 216.5 16C207.939 16 201 12.4182 201 8C201 3.5818 207.939 0 216.5 0C220.511 0 224.165 0.78646 226.918 2.07642C226.795 2.23863 226.684 2.41046 226.587 2.59056C226.684 2.41046 226.795 2.23865 226.918 2.07645C230.04 3.5399 232 5.65185 232 8.00003C232 10.3431 230.048 12.4506 226.938 13.9137C226.938 13.9137 226.938 13.9137 226.938 13.9137Z" fill="#C6F222"/>
</g>
<g style="mix-blend-mode:multiply">
<path fill-rule="evenodd" clip-rule="evenodd" d="M373.822 13.7894C373.389 13.9231 372.928 14 372.445 14H364.755C363.417 14 362.224 13.4362 361.462 12.5693C364.789 11.1956 366.876 9.21673 366.876 7.01698C366.876 5.87271 366.311 4.78828 365.301 3.81771C366.311 4.78835 366.876 5.87287 366.876 7.01713C366.876 9.21688 364.789 11.1955 361.463 12.5691C360.925 11.9561 360.6 11.1925 360.6 10.3642V3.63605C360.6 2.81866 360.916 2.06497 361.441 1.45583L361.441 1.45588C362.202 0.574834 363.404 0 364.755 0H372.445C374.289 0 375.86 1.06562 376.4 2.52701L376.399 2.52711C376.529 2.87719 376.6 3.2495 376.6 3.63594V10.3641C376.6 11.9415 375.435 13.2887 373.822 13.7894C373.822 13.7894 373.822 13.7894 373.822 13.7894Z" fill="#001DF3"/>
</g>
<g style="mix-blend-mode:multiply">
<path fill-rule="evenodd" clip-rule="evenodd" d="M516.754 1.5763L517.875 3.3118L517.875 3.31177L521.724 9.27159C522.629 10.6729 522.171 12.304 520.964 13.2381L520.964 13.238C520.361 13.7044 519.574 14 518.67 14H508.731C508.293 14 507.886 13.9259 507.511 13.8028C509.092 13.3011 510.235 11.9513 510.235 10.3707V3.62925C510.235 3.24203 510.165 2.86895 510.038 2.51816L510.647 1.5763C512.004 -0.525433 515.397 -0.525433 516.754 1.5763ZM510.235 3.62916V10.3707C510.235 11.9512 509.092 13.301 507.51 13.8027C505.553 13.161 504.538 11.0343 505.677 9.27162L510.038 2.51807C510.165 2.86886 510.235 3.24194 510.235 3.62916Z" fill="#EDE718"/>
</g>
<g style="mix-blend-mode:multiply">
<path fill-rule="evenodd" clip-rule="evenodd" d="M670.253 14H670.347H682.244C684.207 14 685.988 13.3013 687.331 12.1654L687.331 12.1653C688.845 10.8851 689.8 9.04811 689.8 6.99987C689.8 4.95192 688.845 3.11492 687.331 1.83504L687.331 1.83493C685.988 0.698693 684.207 0 682.244 0H670.347H670.253H658.356C655.643 0 653.27 1.32977 651.938 3.31917L655.645 9.26722C656.434 10.5347 656.147 11.9905 655.22 12.9459C656.147 11.9902 656.434 10.5345 655.644 9.26713L651.938 3.31907C651.221 4.3895 650.8 5.64775 650.8 6.99976C650.8 9.71549 652.473 12.0649 654.913 13.2258C654.913 13.2257 654.913 13.2257 654.913 13.2256C655.946 13.7172 657.115 14 658.356 14H670.253Z" fill="#04D37E"/>
</g>
<g style="mix-blend-mode:multiply">
<path fill-rule="evenodd" clip-rule="evenodd" d="M833.155 3.25275C831.737 1.29822 829.242 0 826.4 0C824.322 0 822.436 0.698693 821.014 1.83463C821.106 1.90842 821.197 1.98407 821.285 2.06149C821.197 1.98415 821.106 1.90859 821.014 1.83488C819.411 3.11477 818.4 4.9518 818.4 7.0001C818.4 9.04806 819.411 10.8851 821.014 12.1652L821.014 12.1654C822.436 13.3013 824.322 14 826.4 14C829.265 14 831.776 12.6813 833.189 10.7013L829.633 8.436C828.709 7.62762 828.709 6.30476 829.633 5.49638L829.633 5.49625C828.709 6.30463 828.709 7.62749 829.633 8.43587L833.19 10.7011C833.956 9.6271 834.4 8.35924 834.4 7.00002C834.4 5.62097 833.943 4.33627 833.156 3.25262L833.155 3.25275Z" fill="#2FDBF7"/>
</g>
<g style="mix-blend-mode:multiply">
<path fill-rule="evenodd" clip-rule="evenodd" d="M974.628 0.59487L982.328 5.55787C983.224 6.35102 983.224 7.64898 982.328 8.44213L974.628 13.4051C973.733 14.1983 972.267 14.1983 971.371 13.4051L967.12 10.6648C967.12 10.6646 967.12 10.6645 967.12 10.6644L963.672 8.442C962.776 7.64885 962.776 6.35089 963.672 5.55773L967.087 3.35635C967.087 3.35636 967.087 3.35637 967.087 3.35637L971.371 0.59487C972.267 -0.19829 973.733 -0.19829 974.628 0.59487Z" fill="#4337D9"/>
</g>
</svg>
