<svg width="338" height="16" viewBox="0 0 338 16" fill="none" xmlns="http://www.w3.org/2000/svg">
<g style="mix-blend-mode:multiply">
<path fill-rule="evenodd" clip-rule="evenodd" d="M25.631 4.39867V11.5652C25.631 11.6203 25.6322 11.6752 25.6345 11.7297C25.6322 11.6752 25.631 11.6203 25.631 11.5652V4.3987C25.631 4.39869 25.631 4.39868 25.631 4.39867ZM26.4378 13.9137C23.6831 15.2097 20.0205 16 15.9998 16C7.43945 16 0.5 12.4182 0.5 8C0.5 3.5818 7.43945 0 15.9998 0C20.0106 0 23.6654 0.78646 26.4175 2.07642C26.2948 2.23863 26.1842 2.41046 26.0875 2.59056C26.1842 2.41046 26.2948 2.23865 26.4175 2.07645C29.5396 3.5399 31.5 5.65185 31.5 8.00003C31.5 10.3431 29.5479 12.4506 26.4378 13.9137C26.4378 13.9137 26.4378 13.9137 26.4378 13.9137Z" fill="#C6F222"/>
</g>
<g style="mix-blend-mode:multiply">
<path fill-rule="evenodd" clip-rule="evenodd" d="M84.1218 15.7593C83.6894 15.9121 83.2275 16 82.745 16H75.0554C73.7167 16 72.5239 15.3557 71.7624 14.3649C75.0888 12.795 77.1763 10.5334 77.1763 8.01941C77.1763 6.71167 76.6115 5.47232 75.6013 4.3631C76.6115 5.4724 77.1762 6.71185 77.1762 8.01957C77.1762 10.5336 75.0887 12.7948 71.7627 14.3647C71.2246 13.6641 70.9 12.7914 70.9 11.8448V4.15549C70.9 3.22132 71.216 2.35997 71.7411 1.66381L71.7412 1.66386C72.5016 0.656953 73.7037 0 75.0554 0H82.745C84.5886 0 86.1603 1.21785 86.6995 2.88802L86.6994 2.88812C86.8286 3.28822 86.9 3.71372 86.9 4.15536V11.8447C86.9 13.6475 85.7347 15.1871 84.1218 15.7593C84.1218 15.7593 84.1218 15.7593 84.1218 15.7593Z" fill="#001DF3"/>
</g>
<g style="mix-blend-mode:multiply">
<path fill-rule="evenodd" clip-rule="evenodd" d="M138.533 1.80148L139.721 3.78492L139.721 3.78488L143.796 10.5961C144.754 12.1977 144.27 14.0618 142.991 15.1292L142.991 15.1292C142.352 15.6621 141.52 16 140.562 16H130.038C129.575 16 129.144 15.9153 128.746 15.7746C130.421 15.2013 131.631 13.6586 131.631 11.8523V4.14772C131.631 3.70517 131.557 3.2788 131.423 2.8779L132.067 1.80148C133.504 -0.600495 137.096 -0.600495 138.533 1.80148ZM131.631 4.14761V11.8522C131.631 13.6585 130.421 15.2012 128.746 15.7745C126.673 15.0412 125.6 12.6106 126.805 10.5961L131.423 2.8778C131.557 3.2787 131.631 3.70507 131.631 4.14761Z" fill="#EDE718"/>
</g>
<g style="mix-blend-mode:multiply">
<path fill-rule="evenodd" clip-rule="evenodd" d="M203.153 16H203.247H215.144C217.107 16 218.888 15.2015 220.231 13.9033L220.231 13.9032C221.745 12.4401 222.7 10.3407 222.7 7.99985C222.7 5.65934 221.745 3.55991 220.231 2.09719L220.231 2.09707C218.888 0.798506 217.107 0 215.144 0H203.247H203.153H191.256C188.543 0 186.17 1.51974 184.838 3.79333L188.545 10.5911C189.334 12.0396 189.047 13.7034 188.12 14.7953C189.047 13.7031 189.334 12.0395 188.544 10.591L184.838 3.79323C184.121 5.01657 183.7 6.45457 183.7 7.99972C183.7 11.1034 185.373 13.7885 187.813 15.1152C187.813 15.1151 187.813 15.1151 187.813 15.115C188.846 15.6768 190.015 16 191.256 16H203.153Z" fill="#04D37E"/>
</g>
<g style="mix-blend-mode:multiply">
<path fill-rule="evenodd" clip-rule="evenodd" d="M276.855 3.71743C275.437 1.48368 272.942 0 270.1 0C268.022 0 266.136 0.798506 264.714 2.09672C264.806 2.18106 264.897 2.26751 264.985 2.35599C264.897 2.2676 264.806 2.18125 264.714 2.09701C263.111 3.55973 262.1 5.6592 262.1 8.00011C262.1 10.3406 263.111 12.4401 264.714 13.9031L264.714 13.9033C266.136 15.2015 268.022 16 270.1 16C272.965 16 275.476 14.493 276.889 12.23L273.333 9.64114C272.409 8.71728 272.409 7.20544 273.333 6.28158L273.333 6.28143C272.409 7.20529 272.409 8.71713 273.333 9.641L276.89 12.2299C277.656 11.0024 278.1 9.55342 278.1 8.00002C278.1 6.42396 277.643 4.95574 276.856 3.71728L276.855 3.71743Z" fill="#2FDBF7"/>
</g>
<g style="mix-blend-mode:multiply">
<path fill-rule="evenodd" clip-rule="evenodd" d="M329.128 0.679851L336.828 6.35185C337.724 7.25831 337.724 8.74169 336.828 9.64815L329.128 15.3201C328.233 16.2266 326.767 16.2266 325.871 15.3201L321.62 12.1883C321.62 12.1882 321.62 12.1881 321.62 12.1879L318.172 9.648C317.276 8.74154 317.276 7.25816 318.172 6.3517L321.587 3.83583C321.587 3.83584 321.587 3.83585 321.587 3.83586L325.871 0.679851C326.767 -0.226617 328.233 -0.226617 329.128 0.679851Z" fill="#4337D9"/>
</g>
</svg>
