<svg width="270" height="104" viewBox="0 0 270 104" fill="none" xmlns="http://www.w3.org/2000/svg">
<path fill-rule="evenodd" clip-rule="evenodd" d="M162.094 38.0623H162.324H191.47C196.276 38.0623 200.641 36.2406 203.93 33.2783C200.223 29.9405 197.882 25.1502 197.882 19.8099C197.882 14.4697 200.223 9.67938 203.93 6.34157C200.641 3.37929 196.276 1.55762 191.47 1.55762H162.324H162.094H132.949C126.303 1.55762 120.491 5.02528 117.227 10.2128L126.307 25.7218C128.442 29.3689 127.363 33.6131 124.515 36.0433C127.047 37.3252 129.909 38.0623 132.949 38.0623H162.094Z" fill="#04D37E"/>
<path fill-rule="evenodd" clip-rule="evenodd" d="M209.979 19.8096C209.979 14.4694 207.639 9.67907 203.931 6.34253C200.223 9.67907 197.883 14.4694 197.883 19.8096C197.883 25.1512 200.223 29.9402 203.931 33.278C207.639 29.9402 209.979 25.1512 209.979 19.8096Z" fill="#4B9FAD"/>
<path fill-rule="evenodd" clip-rule="evenodd" d="M114.44 19.8097C114.44 16.2834 115.47 13.0029 117.226 10.2125L114.582 5.69586C111.379 0.227032 103.374 0.227032 100.172 5.69586L98.7363 8.14639C99.0358 9.05913 99.2011 10.0304 99.2011 11.0387V28.5819C99.2011 32.695 96.5042 36.2072 92.7732 37.5133C93.6588 37.8328 94.6193 38.0263 95.6521 38.0263H119.102C121.236 38.0263 123.092 37.2574 124.515 36.043C118.538 33.0171 114.44 26.8914 114.44 19.8097Z" fill="#EDE718"/>
<path fill-rule="evenodd" clip-rule="evenodd" d="M126.307 25.7215L117.226 10.2125C115.471 13.0029 114.44 16.2835 114.44 19.8097C114.44 26.8914 118.537 33.0171 124.515 36.043C127.363 33.6129 128.443 29.3687 126.307 25.7215Z" fill="#4B9FAD"/>
<path fill-rule="evenodd" clip-rule="evenodd" d="M88.4468 25.7214L98.7373 8.14632C97.4889 4.33622 93.8522 1.55725 89.5867 1.55725H71.7955C68.6687 1.55725 65.8866 3.05685 64.127 5.35335C71.8523 8.93685 76.7026 14.1065 76.7026 19.8541C76.7026 25.5903 71.8717 30.7498 64.1774 34.3307C65.9383 36.5916 68.6971 38.0619 71.7955 38.0619H89.5867C90.7034 38.0619 91.7724 37.862 92.7729 37.5132C88.1537 35.8431 85.7602 30.3093 88.4468 25.7214Z" fill="#001DF3"/>
<path fill-rule="evenodd" clip-rule="evenodd" d="M62.1808 11.0383C62.1808 8.9073 62.9115 6.94178 64.1276 5.35307C57.3176 2.19602 48.2742 0.27124 38.3503 0.27124C17.1702 0.27124 0 9.03842 0 19.8539C0 30.6706 17.1702 39.4377 38.3503 39.4377C48.2987 39.4377 57.3615 37.5041 64.1767 34.3317C62.9308 32.7328 62.1808 30.7419 62.1808 28.5816V11.0383Z" fill="#C6F222"/>
<path fill-rule="evenodd" clip-rule="evenodd" d="M76.7024 19.8543C76.7024 14.1054 71.8521 8.93575 64.1268 5.35352C62.912 6.94095 62.1813 8.90774 62.1813 11.0388V28.582C62.1813 30.741 62.9313 32.732 64.1772 34.3309C71.8728 30.7499 76.7024 25.5905 76.7024 19.8543Z" fill="#001DF3"/>
<path fill-rule="evenodd" clip-rule="evenodd" d="M76.7024 19.8543C76.7024 14.1054 71.8521 8.93575 64.1268 5.35352C62.912 6.94095 62.1813 8.90774 62.1813 11.0388V28.582C62.1813 30.741 62.9313 32.732 64.1772 34.3309C71.8728 30.7499 76.7024 25.5905 76.7024 19.8543Z" fill="#000364"/>
<path fill-rule="evenodd" clip-rule="evenodd" d="M99.2007 28.5816V11.0383C99.2007 10.0301 99.0354 9.06008 98.7372 8.14734L88.4467 25.7212C85.7601 30.3091 88.1536 35.8428 92.7728 37.513C96.5051 36.2082 99.2007 32.6947 99.2007 28.5816Z" fill="#0B186D"/>
<path fill-rule="evenodd" clip-rule="evenodd" d="M223.872 15.8896L232.024 10.0389C228.741 4.94302 222.969 1.55811 216.392 1.55811C211.586 1.55811 207.221 3.37977 203.93 6.34205C207.638 9.67987 209.979 14.4689 209.979 19.8092C209.979 25.1507 207.638 29.941 203.93 33.2788C207.221 36.2398 211.586 38.0628 216.392 38.0628C223.02 38.0628 228.832 34.6244 232.101 29.4611L223.872 23.5543C221.735 21.4462 221.735 17.9977 223.872 15.8896Z" fill="#2FDBF7"/>
<path fill-rule="evenodd" clip-rule="evenodd" d="M268.397 15.8896L250.021 2.69997C247.884 0.591873 244.385 0.591873 242.247 2.69997L232.024 10.0388C233.844 12.8649 234.903 16.2142 234.903 19.8104C234.903 23.3545 233.875 26.6604 232.102 29.4611L242.247 36.7439C244.385 38.8507 247.884 38.8507 250.021 36.7439L268.397 23.5543C270.534 21.4462 270.534 17.9977 268.397 15.8896Z" fill="#4337D9"/>
<path fill-rule="evenodd" clip-rule="evenodd" d="M232.024 10.0389L223.872 15.8897C221.736 17.9978 221.736 21.4463 223.872 23.5544L232.102 29.4612C233.875 26.6606 234.902 23.3546 234.902 19.8105C234.902 16.2143 233.844 12.865 232.024 10.0389Z" fill="#2FDBF7"/>
<path fill-rule="evenodd" clip-rule="evenodd" d="M232.024 10.0389L223.872 15.8897C221.736 17.9978 221.736 21.4463 223.872 23.5544L232.102 29.4612C233.875 26.6606 234.902 23.3546 234.902 19.8105C234.902 16.2143 233.844 12.865 232.024 10.0389Z" fill="#1F87A5"/>
<path d="M31.7669 101.099C28.1887 101.099 24.8342 100.437 21.7032 99.1142C18.5723 97.7911 15.8216 96.0049 13.451 93.7556C11.1252 91.5062 9.26898 88.86 7.88243 85.8168C6.5406 82.7736 5.86969 79.5319 5.86969 76.0918C5.86969 72.6517 6.5406 69.41 7.88243 66.3668C9.26898 63.3236 11.1252 60.6774 13.451 58.4281C15.8216 56.1346 18.5723 54.3264 21.7032 53.0032C24.8342 51.6801 28.1887 51.0186 31.7669 51.0186C36.687 51.0186 40.9585 52.0109 44.5814 53.9956C48.249 55.9803 51.2234 58.7147 53.5045 62.199C53.7282 62.5518 53.7729 62.9708 53.6387 63.4559C53.5493 63.897 53.3256 64.2278 52.9678 64.4483L44.9168 69.5423C44.559 69.7628 44.1565 69.8511 43.7092 69.807C43.2619 69.7187 42.8817 69.4982 42.5686 69.1454C41.1821 67.4694 39.6166 66.1243 37.8723 65.1099C36.1726 64.0955 34.1375 63.5883 31.7669 63.5883C30.0673 63.5883 28.4571 63.9411 26.9364 64.6468C25.4604 65.3083 24.1633 66.2125 23.0451 67.3592C21.9269 68.5059 21.0323 69.8511 20.3614 71.3947C19.7352 72.8942 19.4221 74.46 19.4221 76.0918C19.4221 77.7678 19.7352 79.3555 20.3614 80.8551C21.0323 82.3546 21.9269 83.6777 23.0451 84.8244C24.1633 85.927 25.4604 86.8312 26.9364 87.5369C28.4571 88.1984 30.0673 88.5292 31.7669 88.5292C33.4666 88.5292 35.1439 88.2205 36.7988 87.603C38.4537 86.9855 39.7732 85.9712 40.7572 84.5598C40.9808 84.207 41.0032 83.8983 40.8243 83.6336C40.6454 83.3249 40.3323 83.1705 39.885 83.1705H32.1695C31.7222 83.1705 31.342 83.0162 31.0289 82.7074C30.7158 82.3987 30.5593 82.0238 30.5593 81.5828V73.7102C30.5593 73.2691 30.7158 72.8942 31.0289 72.5855C31.342 72.2768 31.7222 72.1224 32.1695 72.1224H55.2489C55.6962 72.1224 56.0764 72.2768 56.3895 72.5855C56.7473 72.8501 56.9486 73.225 56.9933 73.7102C57.0827 74.4599 57.1275 75.3861 57.1275 76.4887C57.1275 77.5472 57.0604 78.6499 56.9262 79.7966C56.6131 82.8398 55.7409 85.6624 54.3096 88.2646C52.8783 90.8667 51.0222 93.116 48.7411 95.0125C46.5047 96.909 43.9328 98.4085 41.0255 99.5111C38.1183 100.57 35.0321 101.099 31.7669 101.099Z" fill="#012169"/>
<path d="M74.7844 100.239H64.7878C64.3406 100.239 63.9604 100.085 63.6473 99.7758C63.3342 99.467 63.1776 99.0922 63.1776 98.6511V53.4002C63.1776 52.9591 63.3342 52.5843 63.6473 52.2755C63.9604 51.9668 64.3406 51.8124 64.7878 51.8124H85.6532C88.2474 51.8124 90.6404 52.2535 92.832 53.1356C95.0237 53.9735 96.8798 55.1644 98.4006 56.708C99.966 58.2516 101.174 60.082 102.024 62.199C102.918 64.316 103.365 66.6535 103.365 69.2115C103.365 70.6229 103.186 72.0342 102.829 73.4456C102.516 74.8128 102.046 76.1139 101.42 77.3488C100.794 78.5837 100.056 79.7084 99.2057 80.7228C98.3559 81.693 97.3942 82.509 96.3207 83.1705C95.9629 83.4352 95.7169 83.7659 95.5827 84.1629C95.4933 84.5157 95.5827 84.8685 95.8511 85.2214C97.5508 87.4266 99.3399 89.698 101.218 92.0355C103.097 94.373 104.774 96.5121 106.25 98.4526C106.519 98.8055 106.586 99.2024 106.452 99.6435C106.317 100.04 106.027 100.239 105.579 100.239H93.1004C92.6531 100.239 92.1611 100.129 91.6244 99.9081C91.1324 99.6435 90.7522 99.3347 90.4838 98.9819C89.0525 97.1295 87.6213 95.2551 86.19 93.3586C84.8034 91.4621 83.4169 89.5436 82.0303 87.603C81.7619 87.2502 81.3818 86.9635 80.8898 86.743C80.3978 86.4784 79.9281 86.346 79.4808 86.346H78.0048C77.5575 86.346 77.1774 86.5004 76.8643 86.8091C76.5512 87.1179 76.3946 87.4927 76.3946 87.9338V98.6511C76.3946 99.0922 76.2381 99.467 75.925 99.7758C75.6119 100.085 75.2317 100.239 74.7844 100.239ZM78.0048 74.1733H85.1165C85.6532 74.1733 86.2123 74.0851 86.7938 73.9086C87.3753 73.6881 87.912 73.3794 88.404 72.9825C88.896 72.5414 89.2985 72.0122 89.6116 71.3947C89.9247 70.7772 90.0813 70.0495 90.0813 69.2115C90.0813 68.7705 89.9918 68.2633 89.8129 67.69C89.6787 67.0725 89.4103 66.4991 89.0078 65.9699C88.65 65.3965 88.1356 64.9334 87.4647 64.5806C86.8385 64.1837 86.0558 63.9852 85.1165 63.9852H78.0048C77.5575 63.9852 77.1774 64.1396 76.8643 64.4483C76.5512 64.757 76.3946 65.1319 76.3946 65.5729V72.5855C76.3946 73.0266 76.5512 73.4014 76.8643 73.7102C77.1774 74.0189 77.5575 74.1733 78.0048 74.1733Z" fill="#012169"/>
<path d="M122.158 100.239H112.027C111.535 100.239 111.133 100.085 110.82 99.7758C110.551 99.467 110.417 99.0922 110.417 98.6511V53.4663C110.417 53.0253 110.551 52.6504 110.82 52.3417C111.133 52.033 111.535 51.8786 112.027 51.8786H122.158C122.605 51.8786 122.986 52.033 123.299 52.3417C123.612 52.6504 123.768 53.0253 123.768 53.4663V98.6511C123.768 99.0922 123.612 99.467 123.299 99.7758C122.986 100.085 122.605 100.239 122.158 100.239Z" fill="#012169"/>
<path d="M177.322 53.4002V98.6511C177.322 99.0922 177.166 99.467 176.853 99.7758C176.54 100.085 176.159 100.239 175.712 100.239H165.783C165.335 100.239 164.866 100.107 164.374 99.8419C163.882 99.5773 163.502 99.2686 163.233 98.9157L145.722 74.6364C145.454 74.2835 145.163 74.1512 144.85 74.2394C144.582 74.2835 144.448 74.5261 144.448 74.9671V98.6511C144.448 99.0922 144.291 99.467 143.978 99.7758C143.665 100.085 143.285 100.239 142.837 100.239H132.841C132.393 100.239 132.013 100.085 131.7 99.7758C131.387 99.467 131.231 99.0922 131.231 98.6511V53.4002C131.231 52.9591 131.387 52.5843 131.7 52.2755C132.013 51.9668 132.393 51.8124 132.841 51.8124H142.904C143.352 51.8124 143.821 51.9447 144.313 52.2094C144.805 52.4299 145.186 52.7166 145.454 53.0694L162.898 77.3488C163.166 77.7016 163.434 77.856 163.703 77.8119C164.016 77.7678 164.172 77.5252 164.172 77.0841V53.4002C164.172 52.9591 164.329 52.5843 164.642 52.2755C164.955 51.9668 165.335 51.8124 165.783 51.8124H175.712C176.159 51.8124 176.54 51.9668 176.853 52.2755C177.166 52.5843 177.322 52.9591 177.322 53.4002Z" fill="#012169"/>
<path d="M220.288 63.9852H210.895C210.448 63.9852 210.068 64.1396 209.755 64.4483C209.441 64.757 209.285 65.1319 209.285 65.5729V98.6511C209.285 99.0922 209.128 99.467 208.815 99.7758C208.547 100.085 208.167 100.239 207.675 100.239H197.611C197.164 100.239 196.784 100.085 196.471 99.7758C196.157 99.467 196.001 99.0922 196.001 98.6511V65.5729C196.001 65.1319 195.844 64.757 195.531 64.4483C195.263 64.1396 194.883 63.9852 194.391 63.9852H184.864C184.416 63.9852 184.036 63.8308 183.723 63.5221C183.41 63.2134 183.254 62.8385 183.254 62.3974V53.4002C183.254 52.9591 183.41 52.5843 183.723 52.2755C184.036 51.9668 184.416 51.8124 184.864 51.8124H220.288C220.78 51.8124 221.16 51.9668 221.428 52.2755C221.742 52.5843 221.898 52.9591 221.898 53.4002V62.3974C221.898 62.8385 221.742 63.2134 221.428 63.5221C221.16 63.8308 220.78 63.9852 220.288 63.9852Z" fill="#012169"/>
<path d="M230.545 53.334C230.724 52.9371 231.014 52.6063 231.417 52.3417C231.864 52.033 232.334 51.8786 232.826 51.8786H242.219C242.666 51.8786 243.091 52.033 243.493 52.3417C243.941 52.6063 244.254 52.9371 244.433 53.334L264.023 98.3203C264.202 98.7173 264.157 99.1363 263.889 99.5773C263.665 100.018 263.196 100.239 262.48 100.239H251.008C250.516 100.239 250.046 100.107 249.599 99.8419C249.196 99.5332 248.883 99.1804 248.659 98.7834L246.848 94.814C246.624 94.4171 246.289 94.0863 245.841 93.8217C245.439 93.513 245.014 93.3586 244.567 93.3586H230.41C229.918 93.3586 229.449 93.513 229.002 93.8217C228.599 94.0863 228.308 94.4171 228.129 94.814L226.251 98.7834C226.072 99.1804 225.759 99.5332 225.312 99.8419C224.909 100.107 224.484 100.239 224.037 100.239H212.497C212.273 100.239 212.05 100.195 211.826 100.107C211.558 100.018 211.357 99.886 211.222 99.7096C211.043 99.5332 210.932 99.3127 210.887 99.0481C210.842 98.7834 210.909 98.4747 211.088 98.1219L230.545 53.334ZM234.503 82.112H240.474C240.921 82.112 241.235 81.9797 241.413 81.7151C241.637 81.4064 241.637 81.0535 241.413 80.6566C240.966 79.554 240.429 78.275 239.803 76.8195C239.177 75.32 238.596 73.9307 238.059 72.6517C237.88 72.2547 237.679 72.0563 237.455 72.0563C237.231 72.0563 237.03 72.2547 236.851 72.6517L233.497 80.6566C233.318 81.0535 233.318 81.4064 233.497 81.7151C233.676 81.9797 234.011 82.112 234.503 82.112Z" fill="#012169"/>
</svg>
